<svg class="logo-logomark" xmlns="http://www.w3.org/2000/svg" viewBox="0 0 125 132"><g id="symbol"><path fill="#262626" d="M65.3,84.5c-0.8-0.7-1.6-1-2.4-0.9c-0.2,0-0.4,0-0.5,0.1c-1.4,0.3-2.6,1.5-3.1,3c-0.4,1.3-0.4,2.7,0.2,3.8 c0.5,1,1.3,1.7,2.4,2c0.4,0.1,0.7,0.2,1.1,0.2c0.6,0,1.2-0.2,1.8-0.5c1.5-0.9,2.4-2.6,2.3-4.3C66.9,86.6,66.3,85.3,65.3,84.5 L65.3,84.5z"></path><path fill="#262626" d="M53.9,48.1l0.2,0.3c0.9,1.6,1.8,3.2,3.1,4.1c1.2,0.8,5,1.3,6.3,1.2c2.9-0.1,4-0.5,4.5-0.8 c0.1,0,0.2-0.1,0.3-0.1c1.6-0.7,2.7-2.4,3.7-3.9l5.7-8.3c0.6-0.9,0.8-1.8,0.4-2.5c-0.5-0.8-1.5-1-2.3-0.9c-1.1,0.1-2.3,0.9-3.3,2.2 c-0.7,0.9-1.3,2-1.9,3c-0.6,1-1.1,2-1.8,2.9c-0.5,0.6-1.3,1.3-1.9,1.8c-0.7,0.3-0.9-0.3-0.9-0.7c-0.2-2.1-0.5-6.9-0.4-9.8 c0-1-0.7-1.8-1.7-1.9c-0.5-0.1-1.1,0-1.5,0c-1,0.1-1.7,1-1.7,2c0.1,2.9,0.1,7.7-0.3,9.9c-0.1,0.6-0.7,0.9-1.3,0.6 c-0.5-0.3-1-0.8-1.7-1.9c-0.6-0.8-1.2-1.8-1.7-2.7c-0.9-1.6-1.8-3.3-3.1-4.3c-0.2-0.1-0.3-0.2-0.5-0.3c-1.1-0.7-2.4-0.9-3.6-0.6 l0,0c-0.3,0.1-0.5,0.4-0.6,0.7c-0.1,0.4-0.1,1,0.2,1.3C50.2,42,52.1,44.9,53.9,48.1L53.9,48.1z"></path><path fill="#262626" d="M82.4,84.9c-2.6-2.4-10.1-15.2-11.7-16.3c-1.7-1.1-3.6-0.9-5.6-0.7c-0.8,0.1-1.6,0.2-2.4,0.2 c-0.7,0-1.4-0.1-2.1-0.2c-1.6-0.2-3.1-0.4-4.6,0.3c-2,0.9-3.5,3.2-4.9,5.2l-7.7,11.5c-0.7,1-1.1,2.1-0.7,2.7c0.4,0.7,2.1,1,2.9,0.9 c1.4-0.2,2.2-1.4,3.5-3.1c1-1.2,1.8-2.7,2.6-4.2c0.8-1.4,1.6-2.8,2.5-4c2.2-3,5.3-4.6,8.5-4.6h0.1c3.3,0,6.3,1.7,8.6,4.8 c1.4,1.9,2.5,4.2,3.8,6.2c0.7,1,1.4,2.1,2.2,3c0.7,0.8,1.6,1.7,2.7,1.8c0.8,0.1,2.5-0.2,2.9-0.9C83.7,86.7,83.1,85.5,82.4,84.9 L82.4,84.9z"></path><path fill="#262626" d="M79.6,58.7c-0.1,0-0.1,0-0.2,0c-2,0-4,0-6,0c-9.6,0-19.1,0-28.7,0c-0.7,0-1.4,0.1-1.9,0.6 c-0.4,0.6-0.2,1.4,0.2,2c1.2,1.5,3.3,1.6,5.2,1.6c4.9,0,9.9,0,14.8,0c5.8,0,11.5,0,17.3,0c1.4,0,3.7-0.4,2.8-2.5 c-0.3-0.7-0.9-1.2-1.7-1.4C80.9,58.7,80.2,58.7,79.6,58.7L79.6,58.7z"></path></g><g id="circle"><path fill="#262626" d="M14.2,53.1c-0.5-0.2-0.7-0.6-0.5-1.1c0.4-1.1,2.4-0.4,2.8-1.5c0.4-1.1-0.7-1.8-2.8-2.6L3.2,44l-1.3,0.9 l1.6-4.5L4,42l10.5,4c2.1,0.8,2.9,2.9,2.1,5C16,52.6,15,53.4,14.2,53.1L14.2,53.1z"></path><path fill="#262626" d="M20.1,34.8l0.4-1.8L16,23l-1.4-0.2l1.4-2.2L27.8,25l1.5-0.4l-3.7,4.1l0.6-1.9l-3.6-1.3l-3.4,3.8l1.6,3.4l2-0.8 L20.1,34.8L20.1,34.8z M19.1,28.8l3.2-3.5l-5.6-2.1l-0.1,0.1L19.1,28.8z"></path><polygon fill="#262626" points="39,18.3 39.8,16.9 35.9,7 34.4,6.6 38.9,4.8 37.9,6.2 41.9,16.6 46.1,14.9 47,10.2 48,14.2 48.2,14.5 39,18.3"></polygon><polygon fill="#262626" points="61.8,11.6 61.7,0.9 60.4,0 65.1,0 63.8,0.9 63.8,11.6 65.1,12.5 60.5,12.6 61.8,11.6 	"></polygon><path fill="#262626" d="M77.8,14.1l0.1-0.3l0.8-3.8c0.1,3.1,1.1,5.2,3,5.9c1.3,0.5,2.6,0,3-1.3c1.2-3.3-5.7-4.7-4.2-8.8 c0.7-1.9,2.9-2.7,5.2-1.8c1.1,0.4,2.2,1.2,2.9,2l-0.1,0.3L88,9.4c-0.2-2.9-1.1-4.7-2.7-5.3c-1.3-0.5-2.6,0-3,1.3 c-1.1,3.1,5.7,4.6,4.2,8.8c-0.7,2-2.8,2.9-5.1,2C80.1,15.7,78.7,14.8,77.8,14.1L77.8,14.1z"></path><path fill="#262626" d="M100.2,19.5c2.5-2.5,6.6-2.4,9.1,0.2c1,1.1,2,2.5,2.3,3.5l-0.2,0.2l-2,2.6c1-2.7,0.9-4.7-0.4-6.1 c-1.9-1.9-4.8-1.4-7.3,1.2c-2.6,2.6-3.1,5.6-1.2,7.5c1.3,1.4,3.4,1.4,6.3,0.3l-2.9,2.2l-0.2,0.2c-1-0.3-2.5-1.3-3.5-2.4 C97.8,26.3,97.7,22,100.2,19.5L100.2,19.5z"></path><path fill="#262626" d="M116.2,40.4c3.3-1.1,6.9,0.7,8,4c1.1,3.3-0.7,7-4,8.1c-3.4,1.2-7-0.7-8.1-4C111,45.3,112.8,41.6,116.2,40.4 L116.2,40.4z M119.5,50.3c3.5-1.2,5.2-3.4,4.4-5.8c-0.8-2.4-3.4-3.2-6.9-1.9c-3.6,1.2-5.3,3.5-4.5,5.9 C113.2,50.8,115.8,51.6,119.5,50.3z"></path><polygon fill="#262626" points="2.9,90.2 11.2,81 11.1,80.8 2.2,84.6 2,86.6 0.5,82.9 2.1,84.2 11.6,80.1 12,78.4 13.3,81.7 6.3,89.7 6.3,89.9 16.8,90 18,93.1 16.7,92.3 7,96.3 6.6,97.9 4.9,93.5 6.2,94.4 15.1,90.6 15,90.4 2.9,90.2 	"></polygon><polygon fill="#262626" points="19.7,114.1 21.3,114 27.6,105.7 27.1,104.1 34.7,110 34.5,110.3 32.9,113.2 33,109.1 29.6,106.5 26.3,110.8 28.4,112.4 30.8,111.5 27.9,115.2 28.2,112.7 26.1,111.1 22.5,115.8 26.3,118.8 30.5,117.3 27.9,120 27.7,120.3 19.7,114"></polygon><polygon fill="#262626" points="31.1,106.1 34.2,104.3 36,105.7 	"></polygon><polygon fill="#262626" points="46.6,129 48.4,128.2 52.9,124 50,117.9 48.6,116.6 54.5,117.6 52.5,118.3 54.6,122.8 54.9,122.8 58.4,119.3 56.7,117.9 60.7,118.6 58.9,119.4 54.9,123.3 57.9,129.7 59.3,131.1 53.4,130.1 55.4,129.3 53.1,124.5 52.9,124.5 48.9,128.3 50.6,129.6 46.5,129"></polygon><polygon fill="#262626" points="79.8,127.6 76.9,117.4 75.4,116.8 79.9,115.5 78.9,116.8 81.8,127 83.3,127.5 78.9,128.9 79.8,127.6"></polygon><path fill="#262626" d="M97.1,113.6c-2.3-2.7-1.9-6.8,0.8-9.3c1.1-1,2.6-1.8,3.6-2.1l0.2,0.2l2.5,2.2c-2.6-1.2-4.6-1.3-6,0 c-2,1.8-1.7,4.8,0.7,7.5c2.4,2.8,5.3,3.5,7.3,1.7c1.5-1.3,1.6-3.3,0.7-6.4l1.9,3.1l0.2,0.2c-0.4,1-1.4,2.4-2.6,3.4 C103.6,116.5,99.4,116.3,97.1,113.6L97.1,113.6z"></path><path fill="#262626" d="M115.6,91.3c-3.3-1.2-5-4.9-3.8-8.2c1.1-3.3,4.8-5.1,8.1-3.9c3.4,1.2,5.1,5,4,8.2 C122.6,90.7,118.9,92.5,115.6,91.3L115.6,91.3z M119,81.4c-3.5-1.3-6.1-0.6-7,1.8c-0.8,2.4,0.7,4.6,4.3,5.9 c3.6,1.3,6.3,0.6,7.1-1.8C124.2,85,122.6,82.7,119,81.4L119,81.4z"></path></g></svg>